<?xml version="1.0" encoding="utf-8"?>
<!-- Generator: Adobe Illustrator 16.0.0, SVG Export Plug-In . SVG Version: 6.00 Build 0)  -->
<!DOCTYPE svg PUBLIC "-//W3C//DTD SVG 1.1//EN" "http://www.w3.org/Graphics/SVG/1.1/DTD/svg11.dtd">
<svg version="1.1" id="Capa_1" xmlns="http://www.w3.org/2000/svg" xmlns:xlink="http://www.w3.org/1999/xlink" x="0px" y="0px"
	 width="927.969px" height="927.969px" viewBox="0 0 927.969 927.969" enable-background="new 0 0 927.969 927.969"
	 xml:space="preserve">
<g>
	<g>
		<path d="M741.318,729.349c-10.794,9.23-18.387,22.182-18.312,36.773c0.372,16.673,10.569,33.199,26.054,39.825
			c5.358,2.307,11.165,3.424,16.973,3.424c23.895,0,43.323-19.354,43.323-43.325c0-23.968-19.354-43.322-43.323-43.322
			c-1.043,0-2.085,0.074-3.054,0.147l-72.057-72.056l41.909-41.91c4.615-4.614,4.615-12.208,0-16.823l-16.6-16.524
			c-4.616-4.616-12.208-4.616-16.823,0L575.467,699.573c-4.615,4.614-4.615,12.208,0,16.823l16.6,16.601
			c4.615,4.615,12.208,4.615,16.823,0l41.91-41.91l59.104,59.104c0.075-0.074,0.075-0.149,0.149-0.224
			c0.521-0.744,1.042-1.562,1.562-2.308c2.233-2.978,4.542-5.657,6.998-7.964c4.317-4.021,9.305-7.668,14.738-10.199
			c3.573-1.861,7.444-3.35,11.315-4.467c2.755-0.818,4.392-1.116,4.392-1.116s-1.414,0.818-3.722,2.457
			C743.924,727.264,742.584,728.307,741.318,729.349z"/>
		<path d="M166.573,331.024c2.01,8.337,6.848,15.781,13.697,20.992l395.57,299.619l26.798-26.799L282.4,283.309l341.527,320.237
			l27.691-27.691L354.159,178.646c-5.286-7.072-12.878-11.985-21.512-13.995l-200.316-45.78
			c-8.114-1.787-15.334,5.434-13.399,13.547L166.573,331.024z"/>
	</g>
</g>
<rect fill="none" width="927.969" height="927.969"/>
</svg>
